<svg width="60" height="60" fill="none" xmlns="http://www.w3.org/2000/svg"><path d="M43.851 45.244a1.985 1.985 0 00-1.857-1.238H16V18c0-1.106-.9-2.006-1.988-2.006-.525 0-1.05.206-1.426.58l-12.004 12A1.998 1.998 0 000 30v27.994C0 59.1.9 60 2.007 60h28.002c.526 0 1.032-.206 1.426-.581l12.004-12a2.067 2.067 0 00.412-2.175zM58.012 0H5.983C4.877 0 3.976.9 3.976 1.988c0 .525.207 1.05.582 1.425l12.003 12a2 2 0 001.426.58H44V42c0 .525.207 1.031.582 1.425l12.004 12A1.998 1.998 0 0060 54V2.006A1.993 1.993 0 0058.012 0z" opacity=".15" fill="#000"/></svg>