<svg width="56" height="68" fill="none" xmlns="http://www.w3.org/2000/svg"><g opacity=".15" fill="#000"><path d="M2.89 24.997C-2.903 34.973.78 50.112 7.186 59.29 10.384 63.881 13.62 68 18.056 68c.083 0 .167-.002.253-.005 2.083-.083 3.589-.72 5.044-1.334 1.635-.691 3.325-1.406 5.976-1.406 2.522 0 4.132.691 5.688 1.36 1.534.658 3.115 1.34 5.45 1.296 4.994-.092 8.061-4.537 10.767-8.459 2.823-4.094 4.24-8.07 4.718-9.589l.019-.06a.556.556 0 00-.298-.684l-.042-.017c-.88-.357-8.595-3.754-8.676-13.012-.075-7.521 5.788-11.504 6.964-12.226l.055-.034a.557.557 0 00.16-.783c-4.048-5.877-10.251-6.763-12.748-6.87a11.328 11.328 0 00-1.113-.053c-2.933 0-5.743 1.099-8 1.982-1.559.61-2.905 1.137-3.833 1.137-1.043 0-2.397-.534-3.965-1.15-2.096-.826-4.472-1.762-6.987-1.762l-.177.002c-5.848.086-11.374 3.406-14.421 8.664z"/><path d="M41.39 0c-3.54.144-7.79 2.307-10.329 5.258-2.157 2.481-4.266 6.617-3.71 10.786a.56.56 0 00.513.483c.239.018.483.028.726.028 3.463 0 7.199-1.901 9.75-4.962 2.685-3.233 4.043-7.38 3.632-11.097A.564.564 0 0041.39 0z"/></g></svg>