<svg width="54" height="54" fill="none" xmlns="http://www.w3.org/2000/svg"><rect width="54" height="54" rx="27" fill="#E5E5E5"/><path d="M18 22l5-4s-5 10.5-5 14" stroke="#1434E1" stroke-width="2" stroke-linecap="round" stroke-linejoin="round"/><path d="M27.436 18c-1.5.5-2.5 3-3 5s-1.092 5 1.5 5c3.592 0 3.092-8 3.092-8m5.408-2c-1.5.5-2.5 3-3 5s-1.092 5 1.5 5c3.592 0 3.092-8 3.092-8M22 32s5-2 11-1" stroke="#1434E1" stroke-width="2" stroke-linecap="round"/><path d="M34 34c-8.5-.898-15 2-15 2" stroke="#1434E1" stroke-width="2" stroke-linecap="round" stroke-linejoin="round"/></svg>