<svg width="52" height="70" fill="none" xmlns="http://www.w3.org/2000/svg"><path d="M51.993 42.542c-.927-13.763-8.077-27.212-21.295-40.056C29.316 1.14 28.128.022 28.06 0c-.069-.022.061.509.287 1.182.584 1.747 1.057 4.125 1.243 6.256.538 7.266-.446 15.718-9.976 20.895-1.447.734-1.313.587-1.598.332-.378-.332-1.24-1.475-1.764-2.54-.837-1.697-1.205-3.18-1.456-5.89l-.165-1.73-1.655 1.937a72.583 72.583 0 00-5.387 7.14c-9.174 13.85-10.08 26.487-2.444 34.193 6.002 5.86 13.75 8.457 24.965 6.735 13.144-1.786 22.174-10.195 21.884-25.969z" fill="#000" opacity=".15"/></svg>